Coordinates
version=1
nRows=30
nColumns=38
inDegrees=no

Units are S.I. units (second, meters, Newtons, ...)
If the header above contains a line with 'inDegrees', this indicates whether rotational values are in degrees (yes) or radians (no).

endheader
time	pelvis_tilt	pelvis_list	pelvis_rotation	pelvis_tx	pelvis_ty	pelvis_tz	hip_flexion_r	hip_adduction_r	hip_rotation_r	knee_angle_r	ankle_angle_r	subtalar_angle_r	mtp_angle_r	hip_flexion_l	hip_adduction_l	hip_rotation_l	knee_angle_l	ankle_angle_l	subtalar_angle_l	mtp_angle_l	lumbar_extension	lumbar_bending	lumbar_rotation	arm_flex_r	arm_add_r	arm_rot_r	elbow_flex_r	pro_sup_r	wrist_flex_r	wrist_dev_r	arm_flex_l	arm_add_l	arm_rot_l	elbow_flex_l	pro_sup_l	wrist_flex_l	wrist_dev_l
1.26	-0.907088	1.53034	-0.500594	0.789922	0.459234	1.06135	0.294264	-0.0599995	-0.144363	0.16441	-0.139531	0	0	-0.254415	-0.0290836	-0.355572	0.12528	-0.156038	0	0	-0.511389	0.104896	-0.126997	-0.116011	-0.497601	0.230565	0.954594	1.02648	0	0	-0.0505736	-0.587543	-0.0632677	1.00022	1.31591	0	0
1.27	-0.949861	1.53795	-0.453355	0.789509	0.44606	1.05821	0.290498	-0.0656945	-0.138879	0.0960908	-0.146914	0	0	-0.263402	-0.0262157	-0.356415	0.124547	-0.149306	0	0	-0.504322	0.0990015	-0.131588	-0.117503	-0.496525	0.23395	0.951611	1.02465	0	0	-0.0526356	-0.59301	-0.0656738	1.00871	1.32077	0	0
1.28	-1.02408	1.54534	-0.374676	0.789168	0.432793	1.05498	0.296368	-0.07126	-0.146031	0.0658659	-0.140986	0	0	-0.27124	-0.0237848	-0.356674	0.125888	-0.144128	0	0	-0.498081	0.0939179	-0.135184	-0.12019	-0.495793	0.23545	0.950159	1.02265	0	0	-0.0540551	-0.597448	-0.0671706	1.01677	1.32454	0	0
1.29	-1.10397	1.5535	-0.289408	0.788664	0.419221	1.0514	0.294078	-0.0778708	-0.147308	0.0127782	-0.14283	0	0	-0.278482	-0.0213296	-0.357036	0.130353	-0.14378	0	0	-0.491962	0.0883138	-0.135997	-0.131473	-0.4905	0.220923	0.953004	1.03334	0	0	-0.0511967	-0.603238	-0.0603235	1.02226	1.32467	0	0
1.3	-1.29817	1.56065	-0.0908583	0.788046	0.405495	1.04778	0.296746	-0.0841716	-0.157247	0	-0.139504	0	0	-0.284525	-0.0203057	-0.359782	0.138665	-0.139389	0	0	-0.486146	0.0823759	-0.139423	-0.136319	-0.488253	0.220168	0.953152	1.03353	0	0	-0.0551628	-0.607177	-0.0628929	1.03093	1.32664	0	0
1.31	-1.60405	1.56487	0.219446	0.787404	0.391577	1.04425	0.299935	-0.0885652	-0.17564	0	-0.10751	0	0	-0.286486	-0.0262156	-0.38083	0.165133	-0.11512	0	0	-0.483717	0.07713	-0.145991	-0.132	-0.491907	0.240631	0.950716	1.00576	0	0	-0.0682995	-0.613055	-0.0720678	1.04804	1.32617	0	0
1.32	-1.99716	1.56785	0.616401	0.786643	0.377528	1.04111	0.299432	-0.0911288	-0.188256	0	-0.0983188	0	0	-0.293922	-0.0303265	-0.386416	0.17933	-0.112642	0	0	-0.482916	0.0747232	-0.145932	-0.137293	-0.491023	0.239393	0.952894	1.00153	0	0	-0.0708468	-0.616141	-0.0708741	1.05523	1.32511	0	0
1.33	0	1.5708	-1.37711	0.785885	0.363246	1.03831	0.296719	-0.09147	-0.195497	0	-0.0932821	0	0	-0.302679	-0.0354838	-0.387804	0.191864	-0.111752	0	0	-0.482843	0.0742041	-0.144661	-0.142852	-0.490262	0.237767	0.954734	0.996619	0	0	-0.0720279	-0.617825	-0.0674189	1.05901	1.32303	0	0
1.34	-0.100783	1.56853	-1.2721	0.78523	0.34862	1.03608	0.290422	-0.0886105	-0.202736	0	-0.0917884	0	0	-0.312543	-0.0444797	-0.391919	0.208731	-0.113578	0	0	-0.486234	0.0757585	-0.148206	-0.141493	-0.487113	0.240081	0.951368	1.00274	0	0	-0.0818749	-0.615471	-0.0791275	1.06602	1.33014	0	0
1.35	-0.180285	1.56249	-1.18889	0.784599	0.333722	1.03439	0.281278	-0.0826657	-0.208581	0	-0.0927016	0	0	-0.324616	-0.0561336	-0.397226	0.226855	-0.115807	0	0	-0.492885	0.0798128	-0.149891	-0.139823	-0.485249	0.243112	0.948848	1.00504	0	0	-0.0907522	-0.612672	-0.0879094	1.07085	1.3354	0	0
1.36	-0.218289	1.54866	-1.14577	0.784324	0.318496	1.03352	0.267178	-0.0722723	-0.231895	0	-0.103412	0	0	-0.341787	-0.0742289	-0.411855	0.25194	-0.125248	0	0	-0.508623	0.0873092	-0.160946	-0.122379	-0.491302	0.276227	0.94316	0.983162	0	0	-0.11536	-0.604479	-0.122199	1.08501	1.3515	0	0
1.37	-0.259984	1.54248	-1.10224	0.783473	0.302846	1.03212	0.255172	-0.0641911	-0.219917	0	-0.105633	0	0	-0.352838	-0.0860079	-0.411488	0.269426	-0.125531	0	0	-0.512705	0.0938877	-0.152288	-0.135078	-0.484175	0.252932	0.945051	1.00395	0	0	-0.111193	-0.603456	-0.105318	1.07543	1.34577	0	0
1.38	-0.260711	1.52822	-1.09867	0.783038	0.286793	1.03137	0.235121	-0.0517672	-0.222939	0	-0.134081	0	0	-0.368916	-0.104805	-0.428392	0.29756	-0.152298	0	0	-0.526266	0.101753	-0.161823	-0.116696	-0.49435	0.295702	0.938797	0.968248	0	0	-0.136811	-0.593814	-0.134984	1.08288	1.35532	0	0
1.39	-0.265568	1.51782	-1.0909	0.78262	0.27044	1.03049	0.21937	-0.0413514	-0.222847	0	-0.164639	0	0	-0.380743	-0.120456	-0.435049	0.322862	-0.176871	0	0	-0.534229	0.109865	-0.163186	-0.114064	-0.495913	0.305701	0.935273	0.962205	0	0	-0.148176	-0.587324	-0.139267	1.07791	1.35248	0	0
1.4	-0.302312	1.50904	-1.05258	0.78195	0.254001	1.02966	0.207628	-0.0303424	-0.217738	0.00139837	-0.20364	0	0	-0.394151	-0.13692	-0.425056	0.330153	-0.211877	0	0	-0.539497	0.118746	-0.162076	-0.112907	-0.496609	0.312561	0.931355	0.958784	0	0	-0.157502	-0.5802	-0.140048	1.06883	1.34716	0	0
1.41	-0.353187	1.50294	-1.00236	0.78098	0.23752	1.02896	0.201784	-0.0201632	-0.209544	0.0119006	-0.234474	0	0	-0.40272	-0.153375	-0.415871	0.331172	-0.25082	0	0	-0.540954	0.127009	-0.15814	-0.113644	-0.496112	0.315315	0.927047	0.957067	0	0	-0.163993	-0.57225	-0.136916	1.05405	1.33902	0	0
1.42	-0.410867	1.49908	-0.946639	0.780037	0.221198	1.0285	0.20123	-0.0108577	-0.207796	0.0307598	-0.256124	0	0	-0.39878	-0.168625	-0.418339	0.359119	-0.315032	0	0	-0.538898	0.134715	-0.15427	-0.111632	-0.498739	0.326542	0.921807	0.941364	0	0	-0.169652	-0.562475	-0.133117	1.03486	1.33288	0	0
1.43	-0.500032	1.49395	-0.860167	0.778915	0.205117	1.02845	0.201147	0.000846234	-0.197205	0.0543956	-0.25908	0	0	-0.389846	-0.186426	-0.418085	0.396454	-0.365392	0	0	-0.536427	0.145826	-0.147048	-0.11306	-0.499288	0.327201	0.918461	0.936441	0	0	-0.171714	-0.551382	-0.12555	1.01196	1.32687	0	0
1.44	-0.580929	1.48636	-0.781916	0.777887	0.189319	1.02887	0.202346	0.0145887	-0.19116	0.0879339	-0.245603	0	0	-0.379308	-0.205389	-0.414519	0.438957	-0.415041	0	0	-0.536312	0.159387	-0.139976	-0.113726	-0.500138	0.326314	0.916552	0.933064	0	0	-0.174119	-0.538914	-0.119138	0.98946	1.3199	0	0
1.45	-0.649105	1.4767	-0.716433	0.776809	0.173919	1.02963	0.204724	0.0297879	-0.182833	0.129827	-0.225082	0	0	-0.366585	-0.225249	-0.406404	0.48729	-0.442718	0	0	-0.538982	0.174151	-0.136128	-0.108989	-0.500317	0.329469	0.913068	0.932491	0	0	-0.181192	-0.52434	-0.122071	0.970611	1.31613	0	0
1.46	-0.690199	1.46639	-0.679202	0.775558	0.158862	1.03055	0.207264	0.0441784	-0.176876	0.176962	-0.191824	0	0	-0.352562	-0.244714	-0.401038	0.539061	-0.49674	0	0	-0.544243	0.188088	-0.129572	-0.106928	-0.501312	0.329283	0.913834	0.927719	0	0	-0.185096	-0.513019	-0.11692	0.951554	1.30605	0	0
1.47	-0.693188	1.45713	-0.680477	0.77551	0.143971	1.03097	0.204835	0.0532475	-0.178414	0.218336	-0.16137	0	0	-0.312736	-0.275315	-0.510382	0.708444	-0.499028	0	0	-0.551887	0.200506	-0.12411	-0.108989	-0.50704	0.326282	0.92308	0.923689	0	0	-0.191362	-0.50045	-0.112572	0.938184	1.29459	0	0
1.48	-0.702893	1.4506	-0.672366	0.772926	0.129454	1.03227	0.198299	0.0661175	-0.176604	0.241822	-0.135055	0	0	-0.316111	-0.276313	-0.388026	0.649023	-0.599205	0	0	-0.556435	0.206308	-0.12135	-0.10457	-0.498759	0.325213	0.917603	0.922618	0	0	-0.194254	-0.498435	-0.101345	0.920533	1.2778	0	0
1.49	-0.666783	1.44299	-0.710665	0.77305	0.114748	1.0324	0.181355	0.0715414	-0.186242	0.257643	-0.108906	0	0	-0.277799	-0.306263	-0.506884	0.818035	-0.58201	0	0	-0.564821	0.214749	-0.113084	-0.121031	-0.502042	0.302435	0.937766	0.927783	0	0	-0.194026	-0.49531	-0.0750666	0.908772	1.25102	0	0
1.5	-0.637476	1.43908	-0.740114	0.771982	0.100387	1.03318	0.161568	0.0769586	-0.192344	0.259094	-0.0967675	0	0	-0.257815	-0.313762	-0.492784	0.865718	-0.603867	0	0	-0.569404	0.215556	-0.115867	-0.118796	-0.498519	0.305137	0.938511	0.92495	0	0	-0.202986	-0.491168	-0.0731421	0.901261	1.24418	0	0
1.51	-0.598603	1.4368	-0.777945	0.771012	0.0862608	1.03411	0.140127	0.0795894	-0.19977	0.257391	-0.0737889	0	0	-0.236656	-0.316102	-0.471508	0.908995	-0.61278	0	0	-0.571665	0.214318	-0.118136	-0.118067	-0.497638	0.312483	0.939662	0.907906	0	0	-0.206975	-0.494475	-0.0519134	0.891353	1.21905	0	0
1.52	-0.562814	1.43661	-0.813	0.77006	0.0723033	1.03516	0.119712	0.0805705	-0.205204	0.252798	-0.0629798	0	0	-0.213337	-0.314102	-0.446397	0.949803	-0.586816	0	0	-0.572589	0.210652	-0.120678	-0.117011	-0.493365	0.315544	0.937346	0.902702	0	0	-0.211349	-0.493774	-0.0430751	0.882833	1.21161	0	0
1.53	-0.520489	1.43699	-0.854918	0.769035	0.0583737	1.03634	0.0974888	0.0806586	-0.213028	0.24173	-0.0551239	0	0	-0.190741	-0.308629	-0.420931	0.98776	-0.535991	0	0	-0.573471	0.205175	-0.122239	-0.116746	-0.489007	0.318171	0.934527	0.897061	0	0	-0.215182	-0.493803	-0.0348423	0.875926	1.20716	0	0
1.54	-0.482419	1.43708	-0.894796	0.768012	0.0446922	1.03796	0.0772954	0.0813729	-0.213756	0.236008	-0.0475401	0	0	-0.16896	-0.30073	-0.39753	1.02236	-0.473676	0	0	-0.575748	0.199288	-0.120237	-0.116074	-0.485522	0.319938	0.93102	0.891735	0	0	-0.216891	-0.491936	-0.0290056	0.869301	1.20795	0	0
1.55	-0.446348	1.43677	-0.933977	0.766968	0.0311711	1.03991	0.0573042	0.0825462	-0.21137	0.229876	-0.0419609	0	0	-0.148073	-0.291691	-0.377964	1.05333	-0.407534	0	0	-0.578866	0.193126	-0.116275	-0.115479	-0.482308	0.320306	0.927167	0.888166	0	0	-0.218034	-0.488909	-0.0257676	0.863746	1.21211	0	0
